<?xml version="1.0" encoding="UTF-8" standalone="no"?>
<svg
   version="1.0"
   width="719.08795pt"
   height="99.721069pt"
   viewBox="0 0 719.08795 99.721069"
   preserveAspectRatio="xMidYMid"
   id="svg9"
   xmlns:xlink="http://www.w3.org/1999/xlink"
   xmlns="http://www.w3.org/2000/svg"
   xmlns:svg="http://www.w3.org/2000/svg">
  <defs
     id="defs9">
    <linearGradient
       id="linearGradient140">
      <stop
         style="stop-color:#ff00ff;stop-opacity:1"
         offset="0"
         id="stop139" />
      <stop
         style="stop-color:#3b82f6;stop-opacity:1;"
         offset="1"
         id="stop140" />
    </linearGradient>
    <linearGradient
       id="linearGradient126">
      <stop
         style="stop-color:#ff00ff;stop-opacity:1"
         offset="0"
         id="stop125" />
      <stop
         style="stop-color:#00a8f5;stop-opacity:1;"
         offset="1"
         id="stop126" />
    </linearGradient>
    <linearGradient
       id="linearGradient11">
      <stop
         style="stop-color:#f2f2f2;stop-opacity:1"
         offset="0"
         id="stop11" />
      <stop
         style="stop-color:#00a8f5;stop-opacity:0;"
         offset="1"
         id="stop12" />
    </linearGradient>
    <linearGradient
       id="linearGradient29-9"
       gradientTransform="matrix(5.6279532,0,0,0.17768449,24.486633,-76.321869)"
       x1="11.717245"
       y1="2830.3684"
       x2="17.3452"
       y2="2830.3684"
       gradientUnits="userSpaceOnUse">
      <stop
         style="stop-color:#f2f2f2;stop-opacity:1"
         offset="0"
         id="stop28" />
      <stop
         style="stop-color:#00a8f5;stop-opacity:0;"
         offset="1"
         id="stop29" />
    </linearGradient>
    <linearGradient
       id="linearGradient35-2"
       gradientTransform="matrix(5.402431,0,0,0.18510185,24.486633,-76.586566)"
       x1="12.557722"
       y1="2793.0447"
       x2="17.535862"
       y2="2793.0447"
       gradientUnits="userSpaceOnUse">
      <stop
         style="stop-color:#f2f2f2;stop-opacity:1"
         offset="0"
         id="stop32" />
      <stop
         style="stop-color:#00a8f5;stop-opacity:0;"
         offset="1"
         id="stop33" />
    </linearGradient>
    <linearGradient
       xlink:href="#linearGradient11"
       id="linearGradient98"
       gradientUnits="userSpaceOnUse"
       gradientTransform="translate(3.3470691,88.605403)"
       x1="227.24554"
       y1="330.48932"
       x2="214.13522"
       y2="331.58185" />
    <linearGradient
       xlink:href="#linearGradient11"
       id="linearGradient100"
       gradientUnits="userSpaceOnUse"
       gradientTransform="translate(3.3470691,88.894657)"
       x1="227.24554"
       y1="330.48932"
       x2="214.13522"
       y2="331.58185" />
    <linearGradient
       xlink:href="#linearGradient11"
       id="linearGradient102"
       gradientUnits="userSpaceOnUse"
       gradientTransform="translate(3.3470691,89.0459)"
       x1="227.24554"
       y1="330.48932"
       x2="214.13522"
       y2="331.58185" />
    <linearGradient
       xlink:href="#linearGradient11"
       id="linearGradient104"
       gradientUnits="userSpaceOnUse"
       gradientTransform="matrix(1.0809664,0,0,1,-4.8794499,89.154644)"
       x1="227.24554"
       y1="330.48932"
       x2="214.13522"
       y2="331.58185" />
    <linearGradient
       xlink:href="#linearGradient11"
       id="linearGradient109"
       gradientUnits="userSpaceOnUse"
       gradientTransform="translate(3.3470691,89.043709)"
       x1="227.24554"
       y1="330.48932"
       x2="214.13522"
       y2="331.58185" />
    <linearGradient
       xlink:href="#linearGradient11"
       id="linearGradient113"
       gradientUnits="userSpaceOnUse"
       gradientTransform="matrix(0.82497373,0,0,1,20.987561,89.044203)"
       x1="227.24554"
       y1="330.48932"
       x2="214.13522"
       y2="331.58185" />
    <linearGradient
       xlink:href="#linearGradient11"
       id="linearGradient115"
       gradientUnits="userSpaceOnUse"
       gradientTransform="translate(3.0425948,88.912019)"
       x1="227.24554"
       y1="330.48932"
       x2="214.13522"
       y2="331.58185" />
    <linearGradient
       xlink:href="#linearGradient11"
       id="linearGradient117"
       gradientUnits="userSpaceOnUse"
       gradientTransform="translate(3.1512045,93.80082)"
       x1="227.24554"
       y1="330.48932"
       x2="214.13522"
       y2="331.58185" />
    <linearGradient
       xlink:href="#linearGradient11"
       id="linearGradient119"
       gradientUnits="userSpaceOnUse"
       gradientTransform="matrix(1.0503356,0,0,1,-1.8330793,89.22277)"
       x1="227.24554"
       y1="330.48932"
       x2="214.13522"
       y2="331.58185" />
    <linearGradient
       xlink:href="#linearGradient11"
       id="linearGradient121"
       gradientUnits="userSpaceOnUse"
       gradientTransform="translate(3.3998131,89.066193)"
       x1="227.24554"
       y1="330.48932"
       x2="214.13522"
       y2="331.58185" />
    <linearGradient
       xlink:href="#linearGradient11"
       id="linearGradient123"
       gradientUnits="userSpaceOnUse"
       gradientTransform="translate(3.3998131,89.066193)"
       x1="227.24554"
       y1="330.48932"
       x2="214.13522"
       y2="331.58185" />
    <linearGradient
       xlink:href="#linearGradient140"
       id="linearGradient125"
       x1="51.895016"
       y1="426.63168"
       x2="160.87456"
       y2="426.90482"
       gradientUnits="userSpaceOnUse" />
    <linearGradient
       xlink:href="#linearGradient126"
       id="linearGradient127"
       gradientUnits="userSpaceOnUse"
       x1="51.895016"
       y1="426.63168"
       x2="160.87456"
       y2="426.90482" />
    <linearGradient
       xlink:href="#linearGradient126"
       id="linearGradient128"
       gradientUnits="userSpaceOnUse"
       x1="51.895016"
       y1="426.63168"
       x2="160.87456"
       y2="426.90482" />
    <linearGradient
       xlink:href="#linearGradient126"
       id="linearGradient129"
       gradientUnits="userSpaceOnUse"
       x1="51.895016"
       y1="426.63168"
       x2="160.87456"
       y2="426.90482" />
    <linearGradient
       xlink:href="#linearGradient126"
       id="linearGradient130"
       gradientUnits="userSpaceOnUse"
       x1="51.895016"
       y1="426.63168"
       x2="160.87456"
       y2="426.90482" />
    <linearGradient
       xlink:href="#linearGradient126"
       id="linearGradient131"
       gradientUnits="userSpaceOnUse"
       x1="51.895016"
       y1="426.63168"
       x2="160.87456"
       y2="426.90482" />
    <linearGradient
       xlink:href="#linearGradient126"
       id="linearGradient132"
       gradientUnits="userSpaceOnUse"
       x1="51.895016"
       y1="426.63168"
       x2="160.87456"
       y2="426.90482" />
    <linearGradient
       xlink:href="#linearGradient126"
       id="linearGradient133"
       gradientUnits="userSpaceOnUse"
       x1="51.895016"
       y1="426.63168"
       x2="160.87456"
       y2="426.90482" />
    <linearGradient
       xlink:href="#linearGradient126"
       id="linearGradient134"
       gradientUnits="userSpaceOnUse"
       x1="51.895016"
       y1="426.63168"
       x2="160.87456"
       y2="426.90482" />
    <linearGradient
       xlink:href="#linearGradient126"
       id="linearGradient135"
       gradientUnits="userSpaceOnUse"
       x1="51.895016"
       y1="426.63168"
       x2="160.87456"
       y2="426.90482" />
    <linearGradient
       xlink:href="#linearGradient126"
       id="linearGradient136"
       gradientUnits="userSpaceOnUse"
       x1="51.895016"
       y1="426.63168"
       x2="160.87456"
       y2="426.90482" />
    <linearGradient
       xlink:href="#linearGradient126"
       id="linearGradient137"
       gradientUnits="userSpaceOnUse"
       x1="51.895016"
       y1="426.63168"
       x2="160.87456"
       y2="426.90482" />
    <linearGradient
       xlink:href="#linearGradient126"
       id="linearGradient138"
       gradientUnits="userSpaceOnUse"
       x1="51.895016"
       y1="426.63168"
       x2="160.87456"
       y2="426.90482" />
    <linearGradient
       xlink:href="#linearGradient126"
       id="linearGradient139"
       gradientUnits="userSpaceOnUse"
       x1="51.895016"
       y1="426.63168"
       x2="160.87456"
       y2="426.90482" />
  </defs>
  <g
     id="g143"
     transform="matrix(1.3003554,0,0,1.3296141,-66.762756,-395.31091)">
    <g
       transform="matrix(0.1,0,0,-0.1,14.335393,402.31251)"
       fill="#000000"
       stroke="none"
       id="g9"
       style="fill:#3b82f6;fill-opacity:1">
      <path
         d="m 3362,828 c 3,-238 7,-256 62,-316 70,-77 205,-87 295,-21 111,80 114,257 6,347 -85,69 -214,66 -279,-7 -11,-11 -23,-21 -28,-21 -4,0 -8,54 -8,120 v 120 h -26 -26 z m 308,-10 c 98,-67 113,-194 34,-274 -101,-100 -276,-41 -291,100 -6,51 16,123 45,149 57,52 155,63 212,25 z"
         id="path1"
         style="fill:#3b82f6;fill-opacity:1" />
      <path
         d="m 2180,874 c -151,-65 -181,-278 -54,-383 87,-71 235,-57 308,29 30,36 33,55 11,64 -10,4 -31,-10 -58,-38 -34,-35 -51,-46 -89,-51 -60,-9 -101,1 -139,32 -35,30 -56,66 -60,108 l -4,30 193,3 c 214,3 203,-2 180,76 -33,111 -180,177 -288,130 z m 154,-48 c 32,-13 76,-62 89,-98 6,-17 -6,-18 -158,-18 h -164 l 10,28 c 31,86 132,126 223,88 z"
         id="path2"
         style="fill:#3b82f6;fill-opacity:1" />
      <path
         d="m 2728,880 c -115,-34 -181,-159 -148,-279 18,-66 82,-129 150,-147 74,-19 156,3 200,53 l 30,34 v -51 c 0,-47 2,-50 26,-50 h 25 l -3,154 c -3,153 -3,155 -33,198 -53,76 -160,114 -247,88 z m 130,-54 c 15,-8 40,-28 57,-45 24,-27 30,-41 33,-94 3,-56 0,-67 -27,-110 -61,-94 -165,-111 -241,-39 -86,83 -73,210 29,279 39,27 107,31 149,9 z"
         id="path3"
         style="fill:#3b82f6;fill-opacity:1" />
      <path
         d="m 5139,877 c -60,-23 -96,-54 -123,-109 -46,-92 -31,-186 41,-260 43,-44 87,-61 157,-61 183,1 281,210 169,361 -48,64 -166,98 -244,69 z m 139,-51 c 36,-19 78,-65 91,-99 53,-138 -89,-280 -222,-223 -102,43 -139,185 -70,267 56,66 137,88 201,55 z"
         id="path4"
         style="fill:#3b82f6;fill-opacity:1" />
      <path
         d="m 1688,869 c -45,-13 -93,-65 -107,-116 -6,-21 -11,-100 -11,-175 V 440 h 24 24 l 4,153 c 2,96 8,160 16,174 26,47 119,73 182,50 59,-20 70,-57 70,-229 V 440 h 26 26 l -4,163 c -3,176 -12,207 -69,249 -31,23 -126,32 -181,17 z"
         id="path5"
         style="fill:#3b82f6;fill-opacity:1" />
      <path
         d="m 3214,861 c -17,-10 -41,-32 -53,-47 -44,-55 -51,-89 -51,-230 V 450 h 25 25 v 128 c 0,102 4,135 19,168 21,46 64,84 95,84 21,0 50,33 39,44 -13,13 -69,5 -99,-13 z"
         id="path6"
         style="fill:#3b82f6;fill-opacity:1" />
      <path
         d="m 3889,858 c 5,-13 43,-99 85,-192 42,-94 76,-175 76,-182 0,-7 -16,-47 -35,-90 -19,-42 -35,-80 -35,-85 0,-5 11,-9 23,-9 21,0 36,29 150,288 125,285 131,307 83,289 -7,-3 -44,-78 -82,-166 -38,-88 -72,-157 -75,-153 -4,4 -38,77 -76,162 -63,141 -71,155 -96,158 -25,3 -26,1 -18,-20 z"
         id="path7"
         style="fill:#3b82f6;fill-opacity:1" />
      <path
         d="m 4549,838 c 10,-24 48,-110 85,-192 36,-82 66,-155 66,-162 0,-7 -16,-49 -35,-93 -19,-43 -35,-82 -35,-85 0,-3 11,-6 24,-6 21,0 35,27 146,278 67,152 124,283 127,290 4,10 -2,13 -23,10 -26,-3 -33,-14 -98,-165 -38,-90 -72,-160 -75,-157 -3,3 -38,76 -76,162 -64,142 -73,157 -98,160 l -27,3 z"
         id="path8"
         style="fill:#3b82f6;fill-opacity:1" />
      <path
         d="m 5532,727 c 4,-135 7,-158 27,-193 71,-126 271,-118 327,13 10,23 14,77 14,183 v 150 h -25 -25 V 733 c 0,-168 -11,-202 -75,-229 -46,-19 -71,-18 -120,6 -60,29 -68,53 -73,223 l -4,147 h -25 -26 z"
         id="path9"
         style="fill:#3b82f6;fill-opacity:1" />
    </g>
    <g
       id="g124"
       style="fill-opacity:1;stroke:url(#linearGradient125)"
       transform="translate(0.77253303,-92.261339)">
      <circle
         style="fill:url(#linearGradient121);fill-opacity:1;stroke:url(#linearGradient127);stroke-width:3;stroke-dasharray:none;stroke-opacity:1"
         id="path10-1"
         cx="87.069397"
         cy="427.07385"
         r="35" />
      <circle
         style="fill:url(#linearGradient123);fill-opacity:1;stroke:url(#linearGradient128);stroke-width:3;stroke-dasharray:none;stroke-opacity:1"
         id="path10-8-2"
         cx="124.85475"
         cy="427.07385"
         r="35" />
      <path
         style="fill:url(#linearGradient119);fill-opacity:1;stroke:url(#linearGradient129);stroke-width:1.02486;stroke-dasharray:none;stroke-opacity:1"
         d="M 90.763247,422.47143 H 120.9886"
         id="path11-6-8-3-8-1" />
      <path
         style="fill:url(#linearGradient117);fill-opacity:1;stroke:url(#linearGradient130);stroke-width:1;stroke-dasharray:none;stroke-opacity:1"
         d="M 90.234877,431.69751 H 121.90874"
         id="path11-6-8-3-8-8-3" />
      <path
         style="fill:url(#linearGradient115);fill-opacity:1;stroke:url(#linearGradient131);stroke-width:1;stroke-dasharray:none;stroke-opacity:1"
         d="M 93.850535,445.43945 H 117.60594"
         id="path11-6-8-3-8-8-4-4-3-5-8" />
      <path
         style="fill:url(#linearGradient113);fill-opacity:1;stroke:url(#linearGradient132);stroke-width:0.908281;stroke-dasharray:none;stroke-opacity:1"
         d="M 97.739326,450.00041 H 113.83166"
         id="path11-6-8-3-8-8-4-4-3-5-0-5" />
      <path
         style="fill:url(#linearGradient98);fill-opacity:1;stroke:url(#linearGradient133);stroke-width:1;stroke-dasharray:none;stroke-opacity:1"
         d="M 98.754901,403.99201 H 113.8193"
         id="path11-0" />
      <path
         style="fill:url(#linearGradient100);fill-opacity:1;stroke:url(#linearGradient134);stroke-width:1;stroke-dasharray:none;stroke-opacity:1"
         d="M 96.826673,408.59883 H 117.49193"
         id="path11-6-1" />
      <path
         style="fill:url(#linearGradient102);fill-opacity:1;stroke:url(#linearGradient135);stroke-width:1;stroke-dasharray:none;stroke-opacity:1"
         d="M 94.132473,413.20566 H 118.6604"
         id="path11-6-8-7" />
      <path
         style="fill:url(#linearGradient104);fill-opacity:1;stroke:url(#linearGradient136);stroke-width:1.0397;stroke-dasharray:none;stroke-opacity:1"
         d="m 92.18831,417.83233 h 27.34895"
         id="path11-6-8-3-3" />
      <path
         style="fill:url(#linearGradient29-9);fill-opacity:1;stroke:url(#linearGradient137);stroke-width:1;stroke-dasharray:none;stroke-opacity:1"
         d="M 90.430742,427.09069 H 122.1046"
         id="path11-6-8-3-8-8-42" />
      <path
         style="fill:url(#linearGradient109);fill-opacity:1;stroke:url(#linearGradient138);stroke-width:1;stroke-dasharray:none;stroke-opacity:1"
         d="M 90.427541,436.30434 H 122.10141"
         id="path11-6-8-3-8-8-4-4-6" />
      <path
         style="fill:url(#linearGradient35-2);fill-opacity:1;stroke:url(#linearGradient139);stroke-width:0.921463;stroke-dasharray:none;stroke-opacity:1"
         d="M 92.328859,440.87189 H 119.22292"
         id="path11-6-8-3-8-8-4-4-3-8" />
    </g>
  </g>
</svg>
